<svg xmlns="http://www.w3.org/2000/svg"><symbol viewBox="0 0 35.176266 32" id="src-1"><path opacity="1" fill-rule="evenodd" clip-rule="evenodd" d="M19.414.914a2 2 0 00-2.828 0L1.414 16.085c-1.26 1.26-.368 3.415 1.414 3.415H3V30a2 2 0 002 2h8.001a2 2 0 002-2v-6a2 2 0 012-2h2a2 2 0 012 2v6a2 2 0 002 2h8a2 2 0 002-2V19.5h.17c1.782 0 2.675-2.155 1.415-3.415L19.414.915z" /></symbol><symbol viewBox="0 0 60 60" id="src-2"><path opacity=".5" d="M30 60c16.569 0 30-13.431 30-30C60 13.431 46.569 0 30 0 13.431 0 0 13.431 0 30c0 16.569 13.431 30 30 30z" /><path d="M16.835 27.422a4.388 4.388 0 100-8.776 4.388 4.388 0 000 8.776zM43.163 27.422a4.388 4.388 0 100-8.776 4.388 4.388 0 000 8.776z" /><path fill-rule="evenodd" clip-rule="evenodd" d="M18.239 44.85c2.112-4.415 6.546-7.447 11.759-7.447 5.21 0 9.706 3.086 11.764 7.459l-3.455 1.625a9.206 9.206 0 00-8.31-5.266c-3.671 0-6.805 2.124-8.314 5.277l-3.444-1.647z" /><defs><linearGradient id="paint0_linear" x1="0" y1="30.219" x2="60" y2="30.219" gradientUnits="userSpaceOnUse"><stop stop-color="#D9D9D9"/><stop offset="1" stop-color="#A1A1A1"/></linearGradient></defs></symbol><symbol viewBox="0 0 60 60" id="src-3"><path d="M30 60c16.569 0 30-13.431 30-30C60 13.431 46.569 0 30 0 13.431 0 0 13.431 0 30c0 16.569 13.431 30 30 30z" /><path fill='rgba(171, 74, 98, 1)' d="M16.837 27.422a4.388 4.388 0 100-8.776 4.388 4.388 0 000 8.776zM43.163 27.422a4.388 4.388 0 100-8.776 4.388 4.388 0 000 8.776z" /><path fill='rgba(171, 74, 98, 1)' fill-rule="evenodd" clip-rule="evenodd" d="M41.76 39.05c-2.112 4.415-6.547 7.447-11.76 7.447-5.21 0-9.706-3.086-11.764-7.458l3.455-1.626a9.206 9.206 0 008.31 5.266c3.671 0 6.805-2.123 8.314-5.277l3.444 1.648z"/><defs><linearGradient id="paint0_linear" x1="0" y1="30" x2="48.077" y2="6.058" gradientUnits="userSpaceOnUse"><stop stop-color="#FD98BB"/><stop offset="1" stop-color="#FFB2AD"/></linearGradient></defs></symbol><symbol viewBox="0 0 56 48" id="src-4"><path d="M39.879 0C35.176 0 30.958 2.075 28 5.4 25.042 2.075 20.824 0 16.121 0 7.224 0 0 7.45 0 16.625 0 31.989 28 48 28 48s28-16.01 28-31.375C56 7.45 48.776 0 39.879 0z" /><path fill='rgba(142, 154, 213, 1)' fill-rule="evenodd" clip-rule="evenodd" d="M4 17.291C4 10.015 9.738 4 16.94 4a2 2 0 110 4C12.065 8 8 12.104 8 17.291a2 2 0 11-4 0z" /><defs><linearGradient id="paint0_linear" x1="0" y1="24" x2="41.867" y2="-.325" gradientUnits="userSpaceOnUse"><stop stop-color="#FD98BB"/><stop offset="1" stop-color="#FFB2AD"/></linearGradient></defs></symbol><symbol xmlns="http://www.w3.org/2000/svg" id='src-5' viewBox="0 0 32 32" width="32px" height="32px"><path d="M 16 4 C 10.886719 4 6.617188 7.160156 4.875 11.625 L 6.71875 12.375 C 8.175781 8.640625 11.710938 6 16 6 C 19.242188 6 22.132813 7.589844 23.9375 10 L 20 10 L 20 12 L 27 12 L 27 5 L 25 5 L 25 8.09375 C 22.808594 5.582031 19.570313 4 16 4 Z M 25.28125 19.625 C 23.824219 23.359375 20.289063 26 16 26 C 12.722656 26 9.84375 24.386719 8.03125 22 L 12 22 L 12 20 L 5 20 L 5 27 L 7 27 L 7 23.90625 C 9.1875 26.386719 12.394531 28 16 28 C 21.113281 28 25.382813 24.839844 27.125 20.375 Z"/></symbol></svg>